<svg xmlns="http://www.w3.org/2000/svg" xmlns:xlink="http://www.w3.org/1999/xlink" aria-hidden="true" role="img" width="64" height="64" viewBox="0 0 24 24" style="color: rgb(107, 142, 78);"><path fill="currentColor" d="M18.44 3.06H5.56a2.507 2.507 0 0 0-2.5 2.5v12.88a2.507 2.507 0 0 0 2.5 2.5h12.88a2.5 2.5 0 0 0 2.5-2.5V5.56a2.5 2.5 0 0 0-2.5-2.5m1.5 15.38a1.51 1.51 0 0 1-1.5 1.5H5.56a1.51 1.51 0 0 1-1.5-1.5V5.56a1.51 1.51 0 0 1 1.5-1.5h12.88a1.51 1.51 0 0 1 1.5 1.5Z"></path><path fill="currentColor" d="M6.376 10.748a1 1 0 1 1 2 0v6.5a1 1 0 0 1-2 0Z"></path><circle cx="7.376" cy="6.744" r="1" fill="currentColor"></circle><path fill="currentColor" d="M17.62 13.37v3.88a1 1 0 1 1-2 0v-3.88a1.615 1.615 0 1 0-3.23 0v3.88a1 1 0 0 1-2 0v-6.5a1.016 1.016 0 0 1 1-1a.94.94 0 0 1 .84.47a3.61 3.61 0 0 1 5.39 3.15"></path></svg>