<svg xmlns="http://www.w3.org/2000/svg" xmlns:xlink="http://www.w3.org/1999/xlink" aria-hidden="true" role="img" width="34" height="34" viewBox="0 0 24 24" style="color: rgb(107, 142, 78);"><path fill="currentColor" d="M5.73 18.27Q5 17.543 5 16.5H3.379q-.213 0-.356-.144t-.144-.357t.144-.356t.356-.143h1.877q.271-.667.875-1.084Q6.735 14 7.5 14t1.37.416q.603.417.874 1.084h4.618L16.558 6H6.212q-.213 0-.357-.144t-.143-.357t.143-.356T6.212 5h10.577q.384 0 .626.308q.243.308.156.686L16.998 8.5h1.271q.384 0 .727.172q.344.171.566.474l1.797 2.398q.218.292.283.609q.066.316.01.664l-.598 3.037q-.056.292-.284.469t-.518.177h-.483q0 1.039-.728 1.77t-1.77.73t-1.771-.73q-.73-.728-.73-1.77H10q0 1.039-.728 1.77t-1.77.73t-1.771-.73m10.156-5.02h4.652l.177-.89l-2.139-2.86h-1.818zm-1.283 1.248l.13-.58q.13-.58.33-1.42q.113-.46.198-.85q.084-.39.134-.646l.13-.58q.13-.58.33-1.42t.33-1.42l.13-.58L16.558 6l-2.196 9.5zm-12.315-1.5q-.205 0-.343-.144t-.138-.356t.144-.357t.356-.143h3.48q.213 0 .357.144t.144.357t-.144.356t-.356.143zm2-3.496q-.213 0-.357-.144t-.143-.357t.143-.356t.357-.143h4.5q.212 0 .356.144t.144.357t-.144.356t-.356.143zM7.5 18q.617 0 1.059-.441Q9 17.117 9 16.5t-.441-1.059T7.5 15t-1.059.441Q6 15.883 6 16.5t.441 1.059Q6.883 18 7.5 18m9.77 0q.617 0 1.058-.441q.441-.442.441-1.059t-.441-1.059T17.269 15t-1.058.441q-.442.442-.442 1.059t.441 1.059q.442.441 1.06.441"></path></svg>